<?xml version="1.0" encoding="UTF-8" standalone="no"?>
<svg
   xmlns:dc="http://purl.org/dc/elements/1.1/"
   xmlns:cc="http://creativecommons.org/ns#"
   xmlns:rdf="http://www.w3.org/1999/02/22-rdf-syntax-ns#"
   xmlns:svg="http://www.w3.org/2000/svg"
   xmlns="http://www.w3.org/2000/svg"
   width="480.25586"
   height="229"
   viewBox="0 0 480.25586 229"
   version="1.1"
   id="svg432">
  <metadata
     id="metadata438">
    <rdf:RDF>
      <cc:Work
         rdf:about="">
        <dc:format>image/svg+xml</dc:format>
        <dc:type
           rdf:resource="http://purl.org/dc/dcmitype/StillImage" />
        <dc:title></dc:title>
      </cc:Work>
    </rdf:RDF>
  </metadata>
  <defs
     id="defs436" />
  <circle
     cx="16.5"
     cy="120.5"
     fill="#000000"
     stroke="#000000"
     stroke-width="1"
     id="ellipse354"
     r="8" />
  <rect
     fill="#00ff"
     height="44"
     rx="16"
     ry="16"
     stroke="#00ff"
     stroke-width="1"
     width="70"
     x="128.5"
     y="96.5"
     id="rect356" />
  <rect
     fill="#ffffff"
     height="44"
     rx="16"
     ry="16"
     stroke="#000000"
     stroke-width="1"
     width="70"
     x="128.5"
     y="96.5"
     id="rect358" />
  <rect
     fill="#ffffff"
     height="42"
     rx="16"
     ry="16"
     stroke="#ffffff"
     stroke-width="1"
     width="68"
     x="129.5"
     y="97.5"
     id="rect360" />
  <text
     font-family="sans-serif"
     font-size="12px"
     x="140.5"
     y="109.5"
     id="text362">Waiting</text>
  <line
     fill="#000000"
     stroke="#000000"
     stroke-width="1"
     x1="128.5"
     x2="197.5"
     y1="119.5"
     y2="119.5"
     id="line364" />
  <polyline
     fill="none"
     points="29,127 134,127"
     stroke="#333399"
     stroke-width="1"
     id="polyline366"
     transform="translate(-5.4999963,-7.5)" />
  <line
     fill="#333399"
     stroke="#333399"
     stroke-width="1"
     x1="116.5"
     x2="128.5"
     y1="126.5"
     y2="119.5"
     id="line368" />
  <line
     fill="#333399"
     stroke="#333399"
     stroke-width="1"
     x1="116.5"
     x2="128.5"
     y1="112.5"
     y2="119.5"
     id="line370" />
  <rect
     fill="#00ff"
     height="44"
     rx="16"
     ry="16"
     stroke="#00ff"
     stroke-width="1"
     width="112"
     x="288.5"
     y="176.5"
     id="rect372" />
  <rect
     fill="#ffffff"
     height="44"
     rx="16"
     ry="16"
     stroke="#000000"
     stroke-width="1"
     width="112"
     x="288.5"
     y="176.5"
     id="rect374" />
  <rect
     fill="#ffffff"
     height="42"
     rx="16"
     ry="16"
     stroke="#ffffff"
     stroke-width="1"
     width="110"
     x="289.5"
     y="177.5"
     id="rect376" />
  <text
     font-family="sans-serif"
     font-size="12px"
     x="317.5"
     y="189.5"
     id="text378">Refusing</text>
  <line
     fill="#000000"
     stroke="#000000"
     stroke-width="1"
     x1="288.5"
     x2="399.5"
     y1="199.5"
     y2="199.5"
     id="line380" />
  <polyline
     fill="none"
     points="203,147 294,184"
     stroke="#333399"
     stroke-width="1"
     id="polyline382"
     transform="translate(-5.4999963,-7.5)" />
  <line
     fill="#333399"
     stroke="#333399"
     stroke-width="1"
     x1="274.5"
     x2="288.5"
     y1="177.5"
     y2="176.5"
     id="line384" />
  <line
     fill="#333399"
     stroke="#333399"
     stroke-width="1"
     x1="279.5"
     x2="288.5"
     y1="164.5"
     y2="176.5"
     id="line386" />
  <text
     font-family="sans-serif"
     font-size="12px"
     x="245.5"
     y="153.5"
     id="text388">refuse(p : Person)</text>
  <polyline
     fill="none"
     points="294,216 158,216 158,147"
     stroke="#333399"
     stroke-width="1"
     id="polyline390"
     transform="translate(-5.4999963,-7.5)" />
  <line
     fill="#333399"
     stroke="#333399"
     stroke-width="1"
     x1="159.5"
     x2="152.5"
     y1="151.5"
     y2="139.5"
     id="line392" />
  <line
     fill="#333399"
     stroke="#333399"
     stroke-width="1"
     x1="145.5"
     x2="152.5"
     y1="151.5"
     y2="139.5"
     id="line394" />
  <text
     font-family="sans-serif"
     font-size="12px"
     x="184.5"
     y="202.5"
     id="text396">off_red()</text>
  <rect
     fill="#00ff"
     height="44"
     rx="16"
     ry="16"
     stroke="#00ff"
     stroke-width="1"
     width="113"
     x="288.5"
     y="8.5"
     id="rect398" />
  <rect
     fill="#ffffff"
     height="44"
     rx="16"
     ry="16"
     stroke="#000000"
     stroke-width="1"
     width="113"
     x="288.5"
     y="8.5"
     id="rect400" />
  <rect
     fill="#ffffff"
     height="42"
     rx="16"
     ry="16"
     stroke="#ffffff"
     stroke-width="1"
     width="111"
     x="289.5"
     y="9.5"
     id="rect402" />
  <text
     font-family="sans-serif"
     font-size="12px"
     x="313.5"
     y="21.5"
     id="text404">Accepting</text>
  <line
     fill="#000000"
     stroke="#000000"
     stroke-width="1"
     x1="288.5"
     x2="400.5"
     y1="31.5"
     y2="31.5"
     id="line406" />
  <polyline
     fill="none"
     points="406,59 406,128 203,128"
     stroke="#333399"
     stroke-width="1"
     id="polyline408"
     transform="translate(-5.4999963,-7.5)" />
  <line
     fill="#333399"
     stroke="#333399"
     stroke-width="1"
     x1="209.5"
     x2="197.5"
     y1="113.5"
     y2="120.5"
     id="line410" />
  <line
     fill="#333399"
     stroke="#333399"
     stroke-width="1"
     x1="209.5"
     x2="197.5"
     y1="127.5"
     y2="120.5"
     id="line412" />
  <text
     font-family="sans-serif"
     font-size="12px"
     x="402.5"
     y="87.5"
     id="text414">pass_thru()</text>
  <polyline
     fill="none"
     points="294,32 158,32 158,104"
     stroke="#333399"
     stroke-width="1"
     id="polyline416"
     transform="translate(-5.4999963,-7.5)" />
  <line
     fill="#333399"
     stroke="#333399"
     stroke-width="1"
     x1="145.5"
     x2="152.5"
     y1="84.5"
     y2="96.5"
     id="line418" />
  <line
     fill="#333399"
     stroke="#333399"
     stroke-width="1"
     x1="159.5"
     x2="152.5"
     y1="84.5"
     y2="96.5"
     id="line420" />
  <text
     font-family="sans-serif"
     font-size="12px"
     x="188.5"
     y="19.5"
     id="text422">off_grn()</text>
  <polyline
     fill="none"
     points="203,104 294,59"
     stroke="#333399"
     stroke-width="1"
     id="polyline424"
     transform="translate(-5.4999963,-7.5)" />
  <line
     fill="#333399"
     stroke="#333399"
     stroke-width="1"
     x1="280.5"
     x2="288.5"
     y1="62.5"
     y2="51.5"
     id="line426" />
  <line
     fill="#333399"
     stroke="#333399"
     stroke-width="1"
     x1="274.5"
     x2="288.5"
     y1="50.5"
     y2="51.5"
     id="line428" />
  <text
     font-family="sans-serif"
     font-size="12px"
     x="244.5"
     y="92.5"
     id="text430">accept(p : Person)</text>
</svg>
