<?xml version="1.0" encoding="UTF-8" standalone="no"?>
<!DOCTYPE svg PUBLIC "-//W3C//DTD SVG 1.1//EN"
 "http://www.w3.org/Graphics/SVG/1.1/DTD/svg11.dtd">
<!-- Generated by graphviz version 2.46.1 (20210213.1702)
 -->
<!-- Pages: 1 -->
<svg width="127pt" height="254pt"
 viewBox="0.00 0.00 126.91 254.40" xmlns="http://www.w3.org/2000/svg" xmlns:xlink="http://www.w3.org/1999/xlink">
<g id="graph0" class="graph" transform="scale(1 1) rotate(0) translate(4 250.4)">
<polygon fill="white" stroke="transparent" points="-4,4 -4,-250.4 122.91,-250.4 122.91,4 -4,4"/>
<!-- init -->
<g id="node1" class="node">
<title>init</title>
<ellipse fill="black" stroke="black" cx="51" cy="-239.2" rx="7.2" ry="7.2"/>
</g>
<!-- a -->
<g id="node3" class="node">
<title>a</title>
<ellipse fill="none" stroke="black" cx="51" cy="-185" rx="11" ry="11"/>
</g>
<!-- init&#45;&gt;a -->
<g id="edge1" class="edge">
<title>init&#45;&gt;a</title>
<path fill="none" stroke="black" d="M51,-231.8C51,-225.45 51,-215.39 51,-206.3"/>
<polygon fill="black" stroke="black" points="54.5,-206.03 51,-196.03 47.5,-206.03 54.5,-206.03"/>
</g>
<!-- b12 -->
<g id="node2" class="node">
<title>b12</title>
<ellipse fill="red" stroke="black" cx="11" cy="-11" rx="11" ry="11"/>
</g>
<!-- b1 -->
<g id="node4" class="node">
<title>b1</title>
<ellipse fill="gray" stroke="gray" cx="11" cy="-127" rx="11" ry="11"/>
</g>
<!-- a&#45;&gt;b1 -->
<g id="edge2" class="edge">
<title>a&#45;&gt;b1</title>
<path fill="none" stroke="red" stroke-dasharray="5,2" d="M38.73,-166.82C34.69,-161.17 30.16,-154.82 25.94,-148.92"/>
<polygon fill="none" stroke="red" points="48,-172.93 41.5,-177.57 36.85,-171.07 43.36,-166.42 48,-172.93"/>
<polyline fill="none" stroke="red" points="40.1,-168.74 38.94,-167.11 "/>
<polygon fill="red" stroke="red" points="13.59,-140.23 21.73,-134.41 22.89,-136.04 14.75,-141.85 13.59,-140.23"/>
<polyline fill="none" stroke="red" points="17.08,-136.51 19.98,-140.57 "/>
<polygon fill="red" stroke="red" points="28.64,-146.68 19.98,-140.57 22.95,-150.75 28.64,-146.68"/>
</g>
<!-- b2 -->
<g id="node5" class="node">
<title>b2</title>
<ellipse fill="gray" stroke="gray" cx="51" cy="-127" rx="11" ry="11"/>
</g>
<!-- a&#45;&gt;b2 -->
<g id="edge3" class="edge">
<title>a&#45;&gt;b2</title>
<path fill="none" stroke="red" stroke-dasharray="5,2" d="M51,-163.88C51,-160.49 51,-156.94 51,-153.44"/>
<polygon fill="none" stroke="red" points="55,-173.99 47,-173.99 47,-165.99 55,-165.99 55,-173.99"/>
<polyline fill="none" stroke="red" points="51,-165.99 51,-163.99 "/>
<polygon fill="red" stroke="red" points="46,-139.3 56,-139.3 56,-141.3 46,-141.3 46,-139.3"/>
<polyline fill="none" stroke="red" points="51,-138.3 51,-143.3 "/>
<polygon fill="red" stroke="red" points="54.5,-153.3 51,-143.3 47.5,-153.3 54.5,-153.3"/>
</g>
<!-- b3 -->
<g id="node9" class="node">
<title>b3</title>
<ellipse fill="none" stroke="black" cx="91" cy="-127" rx="11" ry="11"/>
</g>
<!-- a&#45;&gt;b3 -->
<g id="edge8" class="edge">
<title>a&#45;&gt;b3</title>
<path fill="none" stroke="#009900" d="M63.27,-166.82C68.21,-159.91 73.88,-151.96 78.81,-145.06"/>
<polygon fill="#009900" stroke="#009900" points="60.5,-177.57 54,-172.93 58.64,-166.42 65.15,-171.07 60.5,-177.57"/>
<polyline fill="none" stroke="#009900" points="61.9,-168.74 63.06,-167.11 "/>
<polygon fill="#009900" stroke="#009900" points="81.96,-146.68 84.92,-136.51 76.26,-142.61 81.96,-146.68"/>
</g>
<!-- b11 -->
<g id="node6" class="node">
<title>b11</title>
<ellipse fill="gray" stroke="gray" cx="11" cy="-69" rx="11" ry="11"/>
</g>
<!-- b1&#45;&gt;b11 -->
<g id="edge5" class="edge">
<title>b1&#45;&gt;b11</title>
<path fill="none" stroke="red" stroke-dasharray="5,2" d="M11,-115.99C11,-108.91 11,-99.17 11,-90.48"/>
<polygon fill="red" stroke="red" points="14.5,-90.3 11,-80.3 7.5,-90.3 14.5,-90.3"/>
</g>
<!-- b21 -->
<g id="node7" class="node">
<title>b21</title>
<ellipse fill="gray" stroke="gray" cx="51" cy="-69" rx="11" ry="11"/>
</g>
<!-- b1&#45;&gt;b21 -->
<g id="edge14" class="edge">
<title>b1&#45;&gt;b21</title>
<path fill="none" stroke="gray" d="M17.25,-117.25C23.04,-109.15 31.8,-96.88 38.95,-86.87"/>
<polygon fill="gray" stroke="gray" points="41.96,-88.68 44.92,-78.51 36.26,-84.61 41.96,-88.68"/>
</g>
<!-- b2&#45;&gt;b11 -->
<g id="edge13" class="edge">
<title>b2&#45;&gt;b11</title>
<path fill="none" stroke="red" stroke-dasharray="5,2" d="M44.75,-117.25C38.96,-109.15 30.2,-96.88 23.05,-86.87"/>
<polygon fill="red" stroke="red" points="25.74,-84.61 17.08,-78.51 20.04,-88.68 25.74,-84.61"/>
</g>
<!-- b2&#45;&gt;b21 -->
<g id="edge6" class="edge">
<title>b2&#45;&gt;b21</title>
<path fill="none" stroke="gray" d="M51,-115.99C51,-108.91 51,-99.17 51,-90.48"/>
<polygon fill="gray" stroke="gray" points="54.5,-90.3 51,-80.3 47.5,-90.3 54.5,-90.3"/>
</g>
<!-- b11&#45;&gt;b12 -->
<g id="edge4" class="edge">
<title>b11&#45;&gt;b12</title>
<path fill="none" stroke="red" stroke-dasharray="5,2" d="M11,-57.99C11,-50.91 11,-41.17 11,-32.48"/>
<polygon fill="red" stroke="red" points="14.5,-32.3 11,-22.3 7.5,-32.3 14.5,-32.3"/>
</g>
<!-- b22 -->
<g id="node8" class="node">
<title>b22</title>
<ellipse fill="none" stroke="black" cx="51" cy="-11" rx="11" ry="11"/>
</g>
<!-- b21&#45;&gt;b22 -->
<g id="edge7" class="edge">
<title>b21&#45;&gt;b22</title>
<path fill="none" stroke="gray" d="M51,-57.99C51,-50.91 51,-41.17 51,-32.48"/>
<polygon fill="gray" stroke="gray" points="54.5,-32.3 51,-22.3 47.5,-32.3 54.5,-32.3"/>
</g>
<!-- b31 -->
<g id="node10" class="node">
<title>b31</title>
<ellipse fill="none" stroke="black" cx="91" cy="-69" rx="11" ry="11"/>
</g>
<!-- b3&#45;&gt;b31 -->
<g id="edge9" class="edge">
<title>b3&#45;&gt;b31</title>
<path fill="none" stroke="black" d="M91,-115.99C91,-108.91 91,-99.17 91,-90.48"/>
<polygon fill="black" stroke="black" points="94.5,-90.3 91,-80.3 87.5,-90.3 94.5,-90.3"/>
</g>
<!-- b31&#45;&gt;b22 -->
<g id="edge11" class="edge">
<title>b31&#45;&gt;b22</title>
<path fill="none" stroke="black" d="M84.75,-59.25C78.96,-51.15 70.2,-38.88 63.05,-28.87"/>
<polygon fill="black" stroke="black" points="65.74,-26.61 57.08,-20.51 60.04,-30.68 65.74,-26.61"/>
</g>
<!-- b32 -->
<g id="node11" class="node">
<title>b32</title>
<ellipse fill="none" stroke="black" cx="91" cy="-11" rx="11" ry="11"/>
</g>
<!-- b31&#45;&gt;b32 -->
<g id="edge10" class="edge">
<title>b31&#45;&gt;b32</title>
<path fill="none" stroke="black" d="M91,-57.99C91,-50.91 91,-41.17 91,-32.48"/>
<polygon fill="black" stroke="black" points="94.5,-32.3 91,-22.3 87.5,-32.3 94.5,-32.3"/>
</g>
<!-- b32&#45;&gt;a -->
<g id="edge12" class="edge">
<title>b32&#45;&gt;a</title>
<path fill="none" stroke="black" d="M95.94,-21.1C106.9,-42.62 130.8,-97.88 111,-138 102.51,-155.21 84.13,-167.77 69.94,-175.38"/>
<polygon fill="black" stroke="black" points="68.35,-172.26 60.96,-179.85 71.47,-178.53 68.35,-172.26"/>
</g>
</g>
</svg>
