<?xml version="1.0" encoding="UTF-8" standalone="no"?>
<!DOCTYPE svg PUBLIC "-//W3C//DTD SVG 1.1//EN"
 "http://www.w3.org/Graphics/SVG/1.1/DTD/svg11.dtd">
<!-- Generated by graphviz version 2.46.1 (20210213.1702)
 -->
<!-- Pages: 1 -->
<svg width="127pt" height="254pt"
 viewBox="0.00 0.00 127.05 254.40" xmlns="http://www.w3.org/2000/svg" xmlns:xlink="http://www.w3.org/1999/xlink">
<g id="graph0" class="graph" transform="scale(1 1) rotate(0) translate(4 250.4)">
<polygon fill="white" stroke="transparent" points="-4,4 -4,-250.4 123.05,-250.4 123.05,4 -4,4"/>
<!-- init -->
<g id="node1" class="node">
<title>init</title>
<ellipse fill="black" stroke="black" cx="51" cy="-239.2" rx="7.2" ry="7.2"/>
</g>
<!-- a -->
<g id="node4" class="node">
<title>a</title>
<ellipse fill="none" stroke="black" cx="51" cy="-185" rx="11" ry="11"/>
</g>
<!-- init&#45;&gt;a -->
<g id="edge1" class="edge">
<title>init&#45;&gt;a</title>
<path fill="none" stroke="#009900" d="M51,-221.67C51,-216.8 51,-211.42 51,-206.34"/>
<polygon fill="#009900" stroke="#009900" points="55,-231.8 47,-231.8 47,-223.8 55,-223.8 55,-231.8"/>
<polyline fill="none" stroke="#009900" points="51,-223.8 51,-221.8 "/>
<polygon fill="#009900" stroke="#009900" points="54.5,-206.03 51,-196.03 47.5,-206.03 54.5,-206.03"/>
</g>
<!-- b11 -->
<g id="node2" class="node">
<title>b11</title>
<ellipse fill="none" stroke="black" cx="11" cy="-69" rx="11" ry="11"/>
<text text-anchor="middle" x="11" y="-65.3" font-family="Times,serif" font-size="14.00">4</text>
</g>
<!-- b12 -->
<g id="node3" class="node">
<title>b12</title>
<ellipse fill="red" stroke="black" cx="11" cy="-11" rx="11" ry="11"/>
</g>
<!-- b11&#45;&gt;b12 -->
<g id="edge4" class="edge">
<title>b11&#45;&gt;b12</title>
<path fill="none" stroke="red" d="M11,-47.88C11,-44.49 11,-40.94 11,-37.44"/>
<polygon fill="none" stroke="red" points="15,-57.99 7,-57.99 7,-49.99 15,-49.99 15,-57.99"/>
<polyline fill="none" stroke="red" points="11,-49.99 11,-47.99 "/>
<polygon fill="red" stroke="red" points="6,-23.3 16,-23.3 16,-25.3 6,-25.3 6,-23.3"/>
<polyline fill="none" stroke="red" points="11,-22.3 11,-27.3 "/>
<polygon fill="red" stroke="red" points="14.5,-37.3 11,-27.3 7.5,-37.3 14.5,-37.3"/>
</g>
<!-- b1 -->
<g id="node5" class="node">
<title>b1</title>
<ellipse fill="none" stroke="black" cx="11" cy="-127" rx="11" ry="11"/>
</g>
<!-- a&#45;&gt;b1 -->
<g id="edge2" class="edge">
<title>a&#45;&gt;b1</title>
<path fill="none" stroke="#009900" d="M38.73,-166.82C33.79,-159.91 28.12,-151.96 23.19,-145.06"/>
<polygon fill="#009900" stroke="#009900" points="48,-172.93 41.5,-177.57 36.85,-171.07 43.36,-166.42 48,-172.93"/>
<polyline fill="none" stroke="#009900" points="40.1,-168.74 38.94,-167.11 "/>
<polygon fill="#009900" stroke="#009900" points="25.74,-142.61 17.08,-136.51 20.04,-146.68 25.74,-142.61"/>
</g>
<!-- b2 -->
<g id="node6" class="node">
<title>b2</title>
<ellipse fill="none" stroke="black" cx="51" cy="-127" rx="11" ry="11"/>
</g>
<!-- a&#45;&gt;b2 -->
<g id="edge3" class="edge">
<title>a&#45;&gt;b2</title>
<path fill="none" stroke="#009900" d="M51,-163.88C51,-158.87 51,-153.49 51,-148.47"/>
<polygon fill="#009900" stroke="#009900" points="55,-173.99 47,-173.99 47,-165.99 55,-165.99 55,-173.99"/>
<polyline fill="none" stroke="#009900" points="51,-165.99 51,-163.99 "/>
<polygon fill="#009900" stroke="#009900" points="54.5,-148.3 51,-138.3 47.5,-148.3 54.5,-148.3"/>
</g>
<!-- b3 -->
<g id="node9" class="node">
<title>b3</title>
<ellipse fill="none" stroke="black" cx="91" cy="-127" rx="11" ry="11"/>
</g>
<!-- a&#45;&gt;b3 -->
<g id="edge8" class="edge">
<title>a&#45;&gt;b3</title>
<path fill="none" stroke="#009900" d="M63.27,-166.82C68.21,-159.91 73.88,-151.96 78.81,-145.06"/>
<polygon fill="#009900" stroke="#009900" points="60.5,-177.57 54,-172.93 58.64,-166.42 65.15,-171.07 60.5,-177.57"/>
<polyline fill="none" stroke="#009900" points="61.9,-168.74 63.06,-167.11 "/>
<polygon fill="#009900" stroke="#009900" points="81.96,-146.68 84.92,-136.51 76.26,-142.61 81.96,-146.68"/>
</g>
<!-- b1&#45;&gt;b11 -->
<g id="edge5" class="edge">
<title>b1&#45;&gt;b11</title>
<path fill="none" stroke="#009900" d="M11,-105.88C11,-100.87 11,-95.49 11,-90.47"/>
<polygon fill="#009900" stroke="#009900" points="15,-115.99 7,-115.99 7,-107.99 15,-107.99 15,-115.99"/>
<polyline fill="none" stroke="#009900" points="11,-107.99 11,-105.99 "/>
<polygon fill="#009900" stroke="#009900" points="14.5,-90.3 11,-80.3 7.5,-90.3 14.5,-90.3"/>
</g>
<!-- b21 -->
<g id="node7" class="node">
<title>b21</title>
<ellipse fill="none" stroke="black" cx="51" cy="-69" rx="11" ry="11"/>
</g>
<!-- b1&#45;&gt;b21 -->
<g id="edge14" class="edge">
<title>b1&#45;&gt;b21</title>
<path fill="none" stroke="#009900" d="M23.27,-108.82C28.21,-101.91 33.88,-93.96 38.81,-87.06"/>
<polygon fill="#009900" stroke="#009900" points="20.5,-119.57 14,-114.93 18.64,-108.42 25.15,-113.07 20.5,-119.57"/>
<polyline fill="none" stroke="#009900" points="21.9,-110.74 23.06,-109.11 "/>
<polygon fill="#009900" stroke="#009900" points="41.96,-88.68 44.92,-78.51 36.26,-84.61 41.96,-88.68"/>
</g>
<!-- b2&#45;&gt;b11 -->
<g id="edge13" class="edge">
<title>b2&#45;&gt;b11</title>
<path fill="none" stroke="#009900" d="M38.73,-108.82C33.79,-101.91 28.12,-93.96 23.19,-87.06"/>
<polygon fill="#009900" stroke="#009900" points="48,-114.93 41.5,-119.57 36.85,-113.07 43.36,-108.42 48,-114.93"/>
<polyline fill="none" stroke="#009900" points="40.1,-110.74 38.94,-109.11 "/>
<polygon fill="#009900" stroke="#009900" points="25.74,-84.61 17.08,-78.51 20.04,-88.68 25.74,-84.61"/>
</g>
<!-- b2&#45;&gt;b21 -->
<g id="edge6" class="edge">
<title>b2&#45;&gt;b21</title>
<path fill="none" stroke="#009900" d="M51,-105.88C51,-100.87 51,-95.49 51,-90.47"/>
<polygon fill="#009900" stroke="#009900" points="55,-115.99 47,-115.99 47,-107.99 55,-107.99 55,-115.99"/>
<polyline fill="none" stroke="#009900" points="51,-107.99 51,-105.99 "/>
<polygon fill="#009900" stroke="#009900" points="54.5,-90.3 51,-80.3 47.5,-90.3 54.5,-90.3"/>
</g>
<!-- b22 -->
<g id="node8" class="node">
<title>b22</title>
<ellipse fill="none" stroke="black" cx="51" cy="-11" rx="11" ry="11"/>
</g>
<!-- b21&#45;&gt;b22 -->
<g id="edge7" class="edge">
<title>b21&#45;&gt;b22</title>
<path fill="none" stroke="#009900" d="M51,-47.88C51,-42.87 51,-37.49 51,-32.47"/>
<polygon fill="#009900" stroke="#009900" points="55,-57.99 47,-57.99 47,-49.99 55,-49.99 55,-57.99"/>
<polyline fill="none" stroke="#009900" points="51,-49.99 51,-47.99 "/>
<polygon fill="#009900" stroke="#009900" points="54.5,-32.3 51,-22.3 47.5,-32.3 54.5,-32.3"/>
</g>
<!-- b31 -->
<g id="node10" class="node">
<title>b31</title>
<ellipse fill="none" stroke="black" cx="91" cy="-69" rx="11" ry="11"/>
</g>
<!-- b3&#45;&gt;b31 -->
<g id="edge9" class="edge">
<title>b3&#45;&gt;b31</title>
<path fill="none" stroke="#009900" d="M91,-105.88C91,-100.87 91,-95.49 91,-90.47"/>
<polygon fill="#009900" stroke="#009900" points="95,-115.99 87,-115.99 87,-107.99 95,-107.99 95,-115.99"/>
<polyline fill="none" stroke="#009900" points="91,-107.99 91,-105.99 "/>
<polygon fill="#009900" stroke="#009900" points="94.5,-90.3 91,-80.3 87.5,-90.3 94.5,-90.3"/>
</g>
<!-- b31&#45;&gt;b22 -->
<g id="edge11" class="edge">
<title>b31&#45;&gt;b22</title>
<path fill="none" stroke="#009900" d="M78.73,-50.82C73.79,-43.91 68.12,-35.96 63.19,-29.06"/>
<polygon fill="#009900" stroke="#009900" points="88,-56.93 81.5,-61.57 76.85,-55.07 83.36,-50.42 88,-56.93"/>
<polyline fill="none" stroke="#009900" points="80.1,-52.74 78.94,-51.11 "/>
<polygon fill="#009900" stroke="#009900" points="65.74,-26.61 57.08,-20.51 60.04,-30.68 65.74,-26.61"/>
</g>
<!-- b32 -->
<g id="node11" class="node">
<title>b32</title>
<ellipse fill="none" stroke="black" cx="91" cy="-11" rx="11" ry="11"/>
</g>
<!-- b31&#45;&gt;b32 -->
<g id="edge10" class="edge">
<title>b31&#45;&gt;b32</title>
<path fill="none" stroke="#009900" d="M91,-47.88C91,-42.87 91,-37.49 91,-32.47"/>
<polygon fill="#009900" stroke="#009900" points="95,-57.99 87,-57.99 87,-49.99 95,-49.99 95,-57.99"/>
<polyline fill="none" stroke="#009900" points="91,-49.99 91,-47.99 "/>
<polygon fill="#009900" stroke="#009900" points="94.5,-32.3 91,-22.3 87.5,-32.3 94.5,-32.3"/>
</g>
<!-- b32&#45;&gt;a -->
<g id="edge12" class="edge">
<title>b32&#45;&gt;a</title>
<path fill="none" stroke="#009900" d="M100.39,-30.31C112.05,-55.78 128.4,-102.74 111,-138 102.51,-155.21 84.13,-167.77 69.94,-175.38"/>
<polygon fill="#009900" stroke="#009900" points="92.33,-22.84 99.54,-19.36 103.02,-26.56 95.81,-30.04 92.33,-22.84"/>
<polyline fill="none" stroke="#009900" points="99.42,-28.3 100.29,-30.1 "/>
<polygon fill="#009900" stroke="#009900" points="68.35,-172.26 60.96,-179.85 71.47,-178.53 68.35,-172.26"/>
</g>
</g>
</svg>
