<svg xmlns="http://www.w3.org/2000/svg" data-name="Your Icon" viewBox="0 0 90 19.275" x="0px" y="0px"><title>handdrawn_arrow_14</title><path d="M86.47,57.71A1.5,1.5,0,0,1,85.22,57a30,30,0,0,1-2.8-5.32c-4.4-.2-8.81-.43-13.13-.67C48.48,49.95,27,48.8,6.7,51.56a1.5,1.5,0,1,1-.4-3c20.54-2.8,42.2-1.64,63.15-.52,3.93.21,7.93.42,11.92.61a29.9,29.9,0,0,1-.94-4.7,1.5,1.5,0,0,1,2.11-1.54,66.92,66.92,0,0,1,11.83,7l.12.09.16.16A1.49,1.49,0,0,1,95,50.83h0a1.48,1.48,0,0,1-.32.74l-.1.11a34.82,34.82,0,0,1-7.38,5.85A1.49,1.49,0,0,1,86.47,57.71Zm-.72-5.85Q86.3,53,87,54.16A31.48,31.48,0,0,0,89.8,52Zm-1.2-3.05,3.83.15q-2.2-1.36-4.5-2.55Q84.16,47.63,84.55,48.81Z" transform="translate(-5 -42.29)"/></svg>