<svg xmlns="http://www.w3.org/2000/svg" width="1303.957" height="673.521" xmlns:v="https://vecta.io/nano"><path d="M1220.471 226.073c-1.605-31.001-19.501-67.041-42.256-87.455-43.258-38.812-106.842-62.626-179.274-80.159-66.102-16-165.612-22.561-243.415-18.946C536.849 49.685 369.12 86.42 222.094 164.858c-47.627 25.414-95.944 52.441-131.157 88.906-25.162 26.04-50.524 60.254-59.751 103.479-18.275 85.427 32.94 156.321 81.614 195.307 89.481 71.705 214.888 88.039 374.573 88.906 239.627 1.293 417.697-26.588 575.688-118.053 46.757-27.067 92.512-55.906 132.65-99.107 39.826-42.866 96.947-106.958 81.614-186.573-7.956-41.346-33.185-74.745-61.222-93.265 68.175 97.333-14.531 234.213-97.638 265.252 47.649-40.693 106.508-96.907 102.006-183.638zM166.734 612.297c36.907 28.574 103.254 45.973 163.228 59.773-1.605-.386 13.617-.386 4.368 1.453-92.222-13.466-178.383-39.679-240.473-88.906-57.7-45.732-107.734-123.827-90.373-225.918 14.286-84.041 77.09-143.147 135.548-186.546C317.86 39.366 602.461-27.1 923.145 10.366c133.542 15.598 270.159 55.946 339.605 142.827 23.379 29.251 44.306 70.771 40.807 119.519-3.722 52.093-33.163 99.332-62.67 135.545-87.252 107.132-223.647 179.279-373.102 217.159-102.229 25.919-226.321 36.439-357.1 36.439-127.413.013-256.899-4.065-343.951-49.559" fill="red" fill-rule="evenodd"/></svg>