<?xml version="1.0" encoding="UTF-8" standalone="no"?>
<svg
   xmlns:dc="http://purl.org/dc/elements/1.1/"
   xmlns:cc="http://creativecommons.org/ns#"
   xmlns:rdf="http://www.w3.org/1999/02/22-rdf-syntax-ns#"
   xmlns:svg="http://www.w3.org/2000/svg"
   xmlns="http://www.w3.org/2000/svg"
   xmlns:sodipodi="http://sodipodi.sourceforge.net/DTD/sodipodi-0.dtd"
   xmlns:inkscape="http://www.inkscape.org/namespaces/inkscape"
   version="1.1"
   id="svg10"
   xml:space="preserve"
   width="1220.5011"
   height="908.47284"
   viewBox="0 0 1220.5011 908.47285"
   sodipodi:docname="q.svg"
   inkscape:version="1.0.2 (e86c8708, 2021-01-15)"><metadata
     id="metadata16"><rdf:RDF><cc:Work
         rdf:about=""><dc:format>image/svg+xml</dc:format><dc:type
           rdf:resource="http://purl.org/dc/dcmitype/StillImage" /><dc:title></dc:title></cc:Work></rdf:RDF></metadata><defs
     id="defs14" /><sodipodi:namedview
     pagecolor="#ffffff"
     bordercolor="#666666"
     borderopacity="1"
     objecttolerance="10"
     gridtolerance="10"
     guidetolerance="10"
     inkscape:pageopacity="0"
     inkscape:pageshadow="2"
     inkscape:window-width="1361"
     inkscape:window-height="782"
     id="namedview12"
     showgrid="false"
     fit-margin-top="0"
     fit-margin-left="0"
     fit-margin-right="0"
     fit-margin-bottom="0"
     inkscape:zoom="0.12944727"
     inkscape:cx="780.59136"
     inkscape:cy="1693.6869"
     inkscape:window-x="0"
     inkscape:window-y="205"
     inkscape:window-maximized="0"
     inkscape:current-layer="g20" /><g
     id="g18"
     inkscape:groupmode="layer"
     inkscape:label="ink_ext_XXXXXX"
     transform="matrix(1.3333333,0,0,-1.3333333,-2367.4086,3678.3536)"><g
       id="g20"
       transform="scale(0.1)"><g
         id="g40"
         transform="scale(1.69579)"><path
           d="m 13194,12425.8 c 643.2,-154.8 1213.1,88.6 1551.6,371.1 20.7,17.3 71.8,37 53.9,53.9 -414.5,-259.7 -933.4,-444.6 -1605.5,-425 z m -1935.9,816.3 c 14,-7.6 14.3,-7.3 6.7,6.7 -244.1,223.7 -455.2,480.2 -613.8,789.3 94.9,-372.8 336.8,-598.6 607.1,-796 z m 1322.1,2374.4 c 344.2,24.7 703.1,-75.4 984.8,-168.6 557.2,-184.4 1107.8,-489.2 1497.6,-816.2 201.8,-169.4 434.9,-388.9 458.6,-701.6 6.1,-79.2 -3.3,-190.9 -6.7,-222.6 109.8,157.2 218.4,333.3 236.1,566.6 18.3,241.1 -41.8,446.1 -141.7,620.6 -205.3,359 -493.7,531.4 -890.4,688.1 -553.6,218.6 -1365.1,363.1 -2118.1,263.1 -712.8,-94.7 -1288.7,-345.4 -1679.6,-769 -114.7,-124.3 -288.3,-342.1 -290.1,-526.2 -1.1,-110.4 59.3,-254.1 101.2,-357.5 48.1,-118.8 107.1,-217.5 161.9,-303.6 358.9,-564.5 898.7,-975.7 1598.7,-1187.2 241.2,-72.8 494.2,-138.9 769,-155.1 292.6,-17.3 578.7,35.9 822.9,107.9 225.8,66.5 453.3,161.8 647.6,283.3 307.4,192.2 662.6,420.2 661.1,910.7 -1.2,358.1 -273.3,574.5 -492.5,742 -465.6,355.8 -1011.5,648.4 -1672.8,809.5 -355.7,86.6 -996.1,188.3 -1227.7,-60.7 -20.2,-21.7 -76,-96.3 -54,-54 117.7,186.3 344.1,309.7 634.1,330.5 z m 445.1,384.5 c 578.8,0 1101.5,-112.4 1551.6,-269.8 7.7,15 -14.7,17.1 -20.3,20.2 -232.3,131.1 -530.4,206.3 -816.1,269.9 -965.1,214.4 -2269.9,131.1 -2819.7,-411.5 -175.7,-173.4 -296.3,-418.1 -317.1,-735.3 441.8,670.4 1289.6,1126.6 2421.6,1126.5 z m -337.2,263.1 c 753.5,35.9 1429.9,-162.3 1949.5,-404.8 274,-127.8 501.8,-265.4 715,-465.4 193.9,-181.8 385.5,-405.1 472.2,-701.5 159.2,-544.5 -152.1,-1001.5 -391.2,-1295.2 -91.8,-112.7 -165.5,-233.3 -249.6,-337.3 -328.3,-405.7 -811.9,-809.5 -1544.8,-809.5 -384.1,0.1 -694.8,91.8 -984.8,195.7 -281.7,100.9 -527.4,249 -809.5,364.2 -549,224.4 -1075.1,516.2 -1281.7,1072.6 -53.7,145 -90.9,314.4 -80.9,499.2 10.1,188.1 -24.6,374.2 -6.7,553.1 71.5,718.7 554.4,1020.6 1167,1187.2 320.5,87.3 635.7,122.2 1045.5,141.7"
           style="fill:#000000;fill-opacity:1;fill-rule:evenodd;stroke:none"
           id="path42" /></g></g></g></svg>
